<svg width="788" height="338" viewBox="0 0 788 338" fill="none" xmlns="http://www.w3.org/2000/svg">
<path fill-rule="evenodd" clip-rule="evenodd" d="M787 338H1.52588e-05V174C-0.00405884 162.242 1.17891 150.494 3.53098 138.953C8.08768 116.689 16.9854 95.5405 29.716 76.7153C48.6017 48.7412 75.1937 26.8433 106.271 13.6743C116.797 9.2251 127.738 5.82886 138.933 3.53516C150.474 1.18188 162.222 -0.00244141 174 0.000244141H787V338Z" fill="#AFAAC1"/>
<path fill-rule="evenodd" clip-rule="evenodd" d="M788 338H16V174C15.9947 163.211 17.0812 152.407 19.2429 141.795C23.4321 121.314 31.6156 101.86 43.326 84.5432C60.6927 58.8186 85.147 38.6824 113.726 26.5742C123.405 22.4832 133.465 19.3601 143.759 17.2512C154.37 15.0876 165.171 13.9983 176 14.0002H788V338Z" fill="black"/>
<path fill-rule="evenodd" clip-rule="evenodd" d="M787 338H77V168C76.9697 148.873 82.6825 130.175 93.3987 114.328C103.817 98.8936 118.487 86.811 135.632 79.5442C147.454 74.541 160.163 71.9753 173 72.0002H787V338Z" fill="#1E1E1E"/>
<path fill-rule="evenodd" clip-rule="evenodd" d="M767.8 133H334C306.386 133 284 110.615 284 83.0002C284 55.386 306.386 33.0002 334 33.0002H767.8C774.39 32.9885 780.917 34.2874 787 36.8213V129.179C780.917 131.713 774.39 133.012 767.8 133H767.8Z" fill="black"/>
<path fill-rule="evenodd" clip-rule="evenodd" d="M496 86.0002C496 83.515 496.879 81.3936 498.636 79.6363C500.393 77.8789 502.515 77.0002 505 77.0002H602C604.485 77.0002 606.607 77.8789 608.364 79.6363C610.121 81.3936 611 83.515 611 86.0002C611 88.4855 610.121 90.6068 608.364 92.3642C606.607 94.1216 604.485 95.0002 602 95.0002H505C502.515 95.0002 500.393 94.1216 498.636 92.3642C496.879 90.6068 496 88.4855 496 86.0002Z" fill="#2B2B29"/>
<circle cx="657" cy="86.0002" r="17" fill="#171717"/>
<circle cx="657" cy="86.0002" r="16" stroke="#2B2B29" stroke-width="2"/>
<circle cx="657" cy="86.0002" r="6" fill="#232A5E"/>
<path fill-rule="evenodd" clip-rule="evenodd" d="M781 303H125C116.163 303 109 295.837 109 287V245C109 236.164 116.163 229 125 229H781C783.426 228.993 785.82 229.543 788 230.608V301.391C785.821 302.456 783.426 303.007 781 303Z" fill="#323234"/>
<path d="M438.528 271.061L443.928 255.509H446.133L438.237 277.145L437.827 278.102C436.813 280.346 435.247 281.468 433.127 281.468C432.638 281.468 432.113 281.389 431.555 281.229L431.538 279.537L432.598 279.64C433.6 279.64 434.409 279.389 435.024 278.888C435.651 278.398 436.181 277.549 436.614 276.341L437.52 273.846L430.547 255.509H432.786L438.528 271.061ZM447.91 264.481C447.91 262.704 448.252 261.103 448.936 259.679C449.631 258.255 450.605 257.149 451.858 256.363C453.123 255.566 454.552 255.167 456.147 255.167C458.608 255.167 460.602 256.033 462.129 257.765C463.656 259.485 464.419 261.769 464.419 264.618V265.045C464.419 266.834 464.071 268.446 463.376 269.881C462.693 271.306 461.724 272.405 460.471 273.18C459.218 273.954 457.788 274.342 456.182 274.342C453.732 274.342 451.738 273.482 450.2 271.761C448.674 270.029 447.91 267.739 447.91 264.891V264.481ZM449.961 265.045C449.961 267.255 450.531 269.072 451.67 270.497C452.821 271.909 454.325 272.616 456.182 272.616C458.027 272.616 459.52 271.909 460.659 270.497C461.81 269.072 462.385 267.198 462.385 264.874V264.481C462.385 263.068 462.123 261.775 461.599 260.602C461.075 259.428 460.34 258.522 459.395 257.884C458.449 257.235 457.367 256.91 456.147 256.91C454.325 256.91 452.838 257.628 451.687 259.063C450.536 260.488 449.961 262.356 449.961 264.669V265.045ZM480.552 271.659C479.321 273.447 477.356 274.342 474.656 274.342C472.685 274.342 471.187 273.772 470.161 272.633C469.136 271.482 468.612 269.785 468.589 267.54V255.509H470.623V267.284C470.623 270.804 472.047 272.564 474.895 272.564C477.857 272.564 479.731 271.34 480.518 268.89V255.509H482.568V274H480.586L480.552 271.659ZM496.445 257.252C496.012 257.172 495.551 257.132 495.061 257.132C493.785 257.132 492.703 257.491 491.814 258.209C490.937 258.915 490.31 259.946 489.934 261.302V274H487.9V255.509H489.9L489.934 258.448C491.016 256.261 492.754 255.167 495.146 255.167C495.716 255.167 496.166 255.241 496.497 255.389L496.445 257.252ZM501.641 255.509L501.709 258.67C502.404 257.531 503.27 256.665 504.307 256.073C505.343 255.469 506.488 255.167 507.742 255.167C509.724 255.167 511.2 255.725 512.168 256.842C513.136 257.958 513.626 259.633 513.638 261.866V274H511.604V261.849C511.593 260.197 511.239 258.967 510.544 258.158C509.861 257.349 508.761 256.944 507.246 256.944C505.981 256.944 504.859 257.343 503.879 258.141C502.911 258.927 502.193 259.992 501.726 261.336V274H499.692V255.509H501.641ZM530.608 274C530.403 273.419 530.272 272.559 530.215 271.419C529.497 272.354 528.58 273.077 527.463 273.59C526.358 274.091 525.185 274.342 523.943 274.342C522.166 274.342 520.724 273.846 519.619 272.855C518.525 271.864 517.979 270.611 517.979 269.095C517.979 267.295 518.725 265.871 520.217 264.823C521.721 263.775 523.812 263.25 526.489 263.25H530.198V261.148C530.198 259.827 529.788 258.79 528.967 258.038C528.158 257.275 526.973 256.893 525.413 256.893C523.988 256.893 522.809 257.258 521.875 257.987C520.941 258.716 520.474 259.593 520.474 260.619L518.423 260.602C518.423 259.132 519.106 257.861 520.474 256.791C521.841 255.708 523.521 255.167 525.515 255.167C527.577 255.167 529.201 255.685 530.386 256.722C531.582 257.748 532.197 259.183 532.231 261.029V269.779C532.231 271.568 532.419 272.906 532.795 273.795V274H530.608ZM524.182 272.53C525.549 272.53 526.768 272.2 527.839 271.539C528.922 270.878 529.708 269.995 530.198 268.89V264.823H526.541C524.501 264.846 522.906 265.222 521.755 265.951C520.605 266.668 520.029 267.66 520.029 268.924C520.029 269.961 520.411 270.821 521.174 271.505C521.949 272.188 522.952 272.53 524.182 272.53ZM539.563 255.509L539.631 258.517C540.315 257.4 541.169 256.563 542.195 256.004C543.22 255.446 544.36 255.167 545.613 255.167C548.529 255.167 550.381 256.363 551.167 258.756C551.828 257.605 552.711 256.722 553.816 256.107C554.921 255.48 556.14 255.167 557.473 255.167C561.438 255.167 563.46 257.332 563.54 261.661V274H561.489V261.815C561.478 260.163 561.119 258.938 560.413 258.141C559.718 257.343 558.578 256.944 556.995 256.944C555.525 256.967 554.283 257.446 553.269 258.38C552.255 259.303 551.691 260.431 551.577 261.764V274H549.526V261.661C549.515 260.077 549.139 258.898 548.398 258.124C547.669 257.337 546.541 256.944 545.015 256.944C543.727 256.944 542.622 257.315 541.699 258.055C540.776 258.784 540.093 259.872 539.648 261.319V274H537.598V255.509H539.563ZM575.896 274.342C574.324 274.342 572.9 273.954 571.624 273.18C570.359 272.405 569.373 271.328 568.667 269.95C567.961 268.56 567.607 267.005 567.607 265.284V264.549C567.607 262.772 567.949 261.171 568.633 259.747C569.328 258.323 570.291 257.206 571.521 256.397C572.751 255.577 574.084 255.167 575.52 255.167C577.764 255.167 579.542 255.936 580.852 257.474C582.174 259.001 582.834 261.091 582.834 263.746V264.891H569.641V265.284C569.641 267.381 570.239 269.129 571.436 270.531C572.643 271.921 574.159 272.616 575.981 272.616C577.075 272.616 578.038 272.416 578.87 272.018C579.713 271.619 580.476 270.981 581.16 270.104L582.441 271.078C580.938 273.254 578.756 274.342 575.896 274.342ZM575.52 256.91C573.982 256.91 572.683 257.474 571.624 258.602C570.575 259.73 569.937 261.245 569.709 263.148H580.801V262.926C580.744 261.148 580.237 259.701 579.28 258.585C578.323 257.468 577.069 256.91 575.52 256.91ZM586.628 272.77C586.628 272.371 586.754 272.035 587.004 271.761C587.266 271.476 587.625 271.334 588.081 271.334C588.537 271.334 588.896 271.476 589.158 271.761C589.42 272.035 589.551 272.371 589.551 272.77C589.551 273.168 589.42 273.499 589.158 273.761C588.896 274.011 588.537 274.137 588.081 274.137C587.625 274.137 587.266 274.011 587.004 273.761C586.754 273.499 586.628 273.168 586.628 272.77ZM599.617 269.745L599.924 271.334L600.334 269.659L604.778 255.509H606.521L610.913 269.54L611.392 271.488L611.785 269.693L615.579 255.509H617.698L612.314 274H610.571L605.82 259.337L605.598 258.329L605.376 259.354L600.71 274H598.967L593.601 255.509H595.703L599.617 269.745ZM633.25 274C633.044 273.419 632.913 272.559 632.856 271.419C632.139 272.354 631.222 273.077 630.105 273.59C629 274.091 627.826 274.342 626.584 274.342C624.807 274.342 623.366 273.846 622.261 272.855C621.167 271.864 620.62 270.611 620.62 269.095C620.62 267.295 621.366 265.871 622.859 264.823C624.363 263.775 626.453 263.25 629.131 263.25H632.839V261.148C632.839 259.827 632.429 258.79 631.609 258.038C630.8 257.275 629.615 256.893 628.054 256.893C626.63 256.893 625.451 257.258 624.517 257.987C623.582 258.716 623.115 259.593 623.115 260.619L621.064 260.602C621.064 259.132 621.748 257.861 623.115 256.791C624.482 255.708 626.163 255.167 628.157 255.167C630.219 255.167 631.842 255.685 633.027 256.722C634.224 257.748 634.839 259.183 634.873 261.029V269.779C634.873 271.568 635.061 272.906 635.437 273.795V274H633.25ZM626.824 272.53C628.191 272.53 629.41 272.2 630.481 271.539C631.563 270.878 632.349 269.995 632.839 268.89V264.823H629.182C627.143 264.846 625.548 265.222 624.397 265.951C623.246 266.668 622.671 267.66 622.671 268.924C622.671 269.961 623.053 270.821 623.816 271.505C624.591 272.188 625.593 272.53 626.824 272.53ZM645.828 271.18L651.45 255.509H653.552L646.648 274H644.99L638.052 255.509H640.154L645.828 271.18ZM659.209 274H657.158V255.509H659.209V274ZM656.799 250.16C656.799 249.772 656.925 249.448 657.175 249.186C657.426 248.912 657.768 248.775 658.201 248.775C658.634 248.775 658.975 248.912 659.226 249.186C659.488 249.448 659.619 249.772 659.619 250.16C659.619 250.547 659.488 250.872 659.226 251.134C658.975 251.396 658.634 251.527 658.201 251.527C657.768 251.527 657.426 251.396 657.175 251.134C656.925 250.872 656.799 250.547 656.799 250.16ZM676.675 271.659C675.444 273.447 673.479 274.342 670.779 274.342C668.808 274.342 667.31 273.772 666.284 272.633C665.259 271.482 664.735 269.785 664.712 267.54V255.509H666.746V267.284C666.746 270.804 668.17 272.564 671.018 272.564C673.98 272.564 675.854 271.34 676.641 268.89V255.509H678.691V274H676.709L676.675 271.659ZM685.886 255.509L685.955 258.517C686.638 257.4 687.493 256.563 688.518 256.004C689.543 255.446 690.683 255.167 691.936 255.167C694.853 255.167 696.704 256.363 697.49 258.756C698.151 257.605 699.034 256.722 700.139 256.107C701.244 255.48 702.463 255.167 703.796 255.167C707.761 255.167 709.784 257.332 709.863 261.661V274H707.812V261.815C707.801 260.163 707.442 258.938 706.736 258.141C706.041 257.343 704.902 256.944 703.318 256.944C701.848 256.967 700.606 257.446 699.592 258.38C698.578 259.303 698.014 260.431 697.9 261.764V274H695.85V261.661C695.838 260.077 695.462 258.898 694.722 258.124C693.993 257.337 692.865 256.944 691.338 256.944C690.05 256.944 688.945 257.315 688.022 258.055C687.1 258.784 686.416 259.872 685.972 261.319V274H683.921V255.509H685.886ZM714.871 272.77C714.871 272.371 714.996 272.035 715.247 271.761C715.509 271.476 715.868 271.334 716.323 271.334C716.779 271.334 717.138 271.476 717.4 271.761C717.662 272.035 717.793 272.371 717.793 272.77C717.793 273.168 717.662 273.499 717.4 273.761C717.138 274.011 716.779 274.137 716.323 274.137C715.868 274.137 715.509 274.011 715.247 273.761C714.996 273.499 714.871 273.168 714.871 272.77ZM730.269 272.616C731.693 272.616 732.883 272.217 733.84 271.419C734.809 270.611 735.333 269.568 735.413 268.292H737.378C737.321 269.42 736.968 270.451 736.318 271.385C735.669 272.308 734.803 273.032 733.721 273.556C732.65 274.08 731.499 274.342 730.269 274.342C727.842 274.342 725.916 273.499 724.492 271.812C723.079 270.126 722.373 267.859 722.373 265.011V264.396C722.373 262.573 722.692 260.96 723.33 259.559C723.968 258.158 724.88 257.075 726.064 256.312C727.261 255.549 728.656 255.167 730.251 255.167C732.279 255.167 733.949 255.771 735.259 256.979C736.58 258.186 737.287 259.776 737.378 261.747H735.413C735.321 260.3 734.797 259.132 733.84 258.243C732.895 257.354 731.698 256.91 730.251 256.91C728.406 256.91 726.97 257.577 725.945 258.91C724.931 260.243 724.424 262.111 724.424 264.515V265.113C724.424 267.472 724.931 269.312 725.945 270.633C726.97 271.955 728.411 272.616 730.269 272.616ZM740.352 264.481C740.352 262.704 740.693 261.103 741.377 259.679C742.072 258.255 743.046 257.149 744.299 256.363C745.564 255.566 746.994 255.167 748.589 255.167C751.05 255.167 753.044 256.033 754.57 257.765C756.097 259.485 756.86 261.769 756.86 264.618V265.045C756.86 266.834 756.513 268.446 755.818 269.881C755.134 271.306 754.166 272.405 752.913 273.18C751.659 273.954 750.229 274.342 748.623 274.342C746.174 274.342 744.18 273.482 742.642 271.761C741.115 270.029 740.352 267.739 740.352 264.891V264.481ZM742.402 265.045C742.402 267.255 742.972 269.072 744.111 270.497C745.262 271.909 746.766 272.616 748.623 272.616C750.469 272.616 751.961 271.909 753.101 270.497C754.251 269.072 754.827 267.198 754.827 264.874V264.481C754.827 263.068 754.565 261.775 754.041 260.602C753.516 259.428 752.782 258.522 751.836 257.884C750.89 257.235 749.808 256.91 748.589 256.91C746.766 256.91 745.279 257.628 744.128 259.063C742.978 260.488 742.402 262.356 742.402 264.669V265.045Z" fill="#84E575"/>
<path d="M157.877 272.362H150.431L148.759 277H146.342L153.129 259.227H155.18L161.979 277H159.574L157.877 272.362ZM151.139 270.433H157.182L154.154 262.12L151.139 270.433ZM174.186 272.362H166.74L165.067 277H162.65L169.438 259.227H171.488L178.288 277H175.883L174.186 272.362ZM167.448 270.433H173.49L170.463 262.12L167.448 270.433Z" fill="white"/>
<path d="M197.353 133.475C196.249 134.559 194.96 135.101 193.485 135.101C191.601 135.101 190.092 134.456 188.959 133.167C187.826 131.868 187.26 130.12 187.26 127.923C187.26 126.527 187.562 125.247 188.168 124.085C188.783 122.913 189.638 122.005 190.731 121.361C191.825 120.706 193.056 120.379 194.423 120.379C195.829 120.379 197.079 120.731 198.173 121.434C199.267 122.137 200.116 123.148 200.722 124.466C201.327 125.784 201.635 127.293 201.645 128.992V130.56C201.645 134.115 200.761 136.907 198.993 138.939C197.226 140.97 194.721 142.054 191.479 142.191L190.438 142.205V138.675L191.376 138.66C195.058 138.494 197.05 136.766 197.353 133.475ZM194.525 131.864C195.209 131.864 195.795 131.688 196.283 131.336C196.781 130.985 197.157 130.56 197.411 130.062V128.319C197.411 126.883 197.138 125.77 196.591 124.979C196.044 124.188 195.312 123.792 194.394 123.792C193.544 123.792 192.846 124.183 192.299 124.964C191.752 125.736 191.479 126.707 191.479 127.879C191.479 129.041 191.742 129.998 192.27 130.75C192.807 131.492 193.559 131.864 194.525 131.864ZM205.058 139.92C205.058 139.246 205.282 138.699 205.731 138.28C206.19 137.86 206.762 137.65 207.445 137.65C208.139 137.65 208.71 137.86 209.159 138.28C209.618 138.699 209.848 139.246 209.848 139.92C209.848 140.584 209.623 141.126 209.174 141.546C208.725 141.956 208.148 142.161 207.445 142.161C206.752 142.161 206.181 141.956 205.731 141.546C205.282 141.126 205.058 140.584 205.058 139.92ZM205.058 127.923C205.058 127.249 205.282 126.702 205.731 126.282C206.19 125.863 206.762 125.653 207.445 125.653C208.139 125.653 208.71 125.863 209.159 126.282C209.618 126.702 209.848 127.249 209.848 127.923C209.848 128.587 209.623 129.129 209.174 129.549C208.725 129.959 208.148 130.164 207.445 130.164C206.752 130.164 206.181 129.959 205.731 129.549C205.282 129.129 205.058 128.587 205.058 127.923ZM225.668 133.973H228.085V137.386H225.668V142H221.435V137.386H212.689L212.499 134.72L221.391 120.672H225.668V133.973ZM216.718 133.973H221.435V126.444L221.156 126.927L216.718 133.973ZM240.653 142H236.42V125.682L231.366 127.249V123.807L240.199 120.643H240.653V142Z" fill="white"/>
<path fill-rule="evenodd" clip-rule="evenodd" d="M416.559 262.829V260.029C416.56 257.328 415.12 254.832 412.781 253.482C410.442 252.131 407.56 252.131 405.222 253.482C402.883 254.833 401.443 257.329 401.444 260.03V262.829H398.959V269.488C398.959 275.034 403.454 279.529 409 279.529C414.545 279.529 419.041 275.034 419.041 269.488V262.829H416.559ZM409.794 272.229V274.701H408.207V272.231C406.811 271.836 405.92 270.471 406.12 269.034C406.32 267.597 407.549 266.527 409 266.527C410.45 266.527 411.679 267.597 411.879 269.034C412.078 270.471 411.188 271.836 409.792 272.231L409.794 272.229ZM414.973 262.829H403.028V260.029C403.028 256.731 405.702 254.057 409 254.057C412.298 254.057 414.972 256.731 414.972 260.029L414.973 262.829Z" fill="#80E770"/>
</svg>
